<svg width="28" height="28" viewBox="0 0 28 28" fill="none" xmlns="http://www.w3.org/2000/svg">
<path d="M21.3061 4.89393L21.2 4.78787L21.0939 4.89393L14 11.9879L6.90607 4.89393L6.8 4.78787L6.69393 4.89393L4.89393 6.69393L4.78787 6.8L4.89393 6.90607L11.9879 14L4.89393 21.0939L4.78787 21.2L4.89393 21.3061L6.69393 23.1061L6.8 23.2121L6.90607 23.1061L14 16.0121L21.0939 23.1061L21.2 23.2121L21.3061 23.1061L23.1061 21.3061L23.2121 21.2L23.1061 21.0939L16.0121 14L23.1061 6.90607L23.2121 6.8L23.1061 6.69393L21.3061 4.89393Z" fill="#1F1F1F" stroke="#1F1F1F" stroke-width="0.3"/>
</svg>
